<svg width="78px" height="86px" viewBox="0 0 78 86" fill="none" xmlns="http://www.w3.org/2000/svg">
<path d="M33.2437 84.3135C31.642 81.5397 29.3385 79.2363 26.5646 77.6349C23.7907 76.0335 20.6441 75.1904 17.4412 75.1904C14.2382 75.1904 11.0916 76.0335 8.31772 77.6349C5.54382 79.2363 3.2403 81.5397 1.63867 84.3135" stroke="#141F3C" stroke-width="1.4466" stroke-linecap="round" stroke-linejoin="round"/>
<path d="M6.49219 60.5922C6.49219 63.4959 7.6457 66.2807 9.69896 68.334C11.7522 70.3873 14.537 71.5408 17.4408 71.5408C20.3445 71.5408 23.1294 70.3873 25.1826 68.334C27.2359 66.2807 28.3894 63.4959 28.3894 60.5922C28.3894 57.6884 27.2359 54.9036 25.1826 52.8503C23.1294 50.7971 20.3445 49.6436 17.4408 49.6436C14.537 49.6436 11.7522 50.7971 9.69896 52.8503C7.6457 54.9036 6.49219 57.6884 6.49219 60.5922Z" stroke="#141F3C" stroke-width="1.4466" stroke-linecap="round" stroke-linejoin="round"/>
<path d="M45.4326 84.3135C47.0342 81.5397 49.3378 79.2363 52.1117 77.6349C54.8856 76.0335 58.0321 75.1904 61.2351 75.1904C64.4381 75.1904 67.5846 76.0335 70.3585 77.6349C73.1324 79.2363 75.436 81.5397 77.0376 84.3135" stroke="#141F3C" stroke-width="1.4466" stroke-linecap="round" stroke-linejoin="round"/>
<path d="M50.2861 60.5922C50.2861 63.4959 51.4396 66.2807 53.4929 68.334C55.5462 70.3873 58.331 71.5408 61.2347 71.5408C64.1385 71.5408 66.9233 70.3873 68.9766 68.334C71.0298 66.2807 72.1833 63.4959 72.1833 60.5922C72.1833 57.6884 71.0298 54.9036 68.9766 52.8503C66.9233 50.7971 64.1385 49.6436 61.2347 49.6436C58.331 49.6436 55.5462 50.7971 53.4929 52.8503C51.4396 54.9036 50.2861 57.6884 50.2861 60.5922Z" stroke="#141F3C" stroke-width="1.4466" stroke-linecap="round" stroke-linejoin="round"/>
<path d="M64.8846 0.375C65.8526 0.375 66.7808 0.759504 67.4653 1.44392C68.1497 2.12835 68.5342 3.05662 68.5342 4.02454V36.8704C68.5342 37.8383 68.1497 38.7665 67.4653 39.451C66.7808 40.1354 65.8526 40.5199 64.8846 40.5199H49.6661L38.7175 51.4685V40.5199H13.7911C12.8232 40.5199 11.8949 40.1354 11.2105 39.451C10.5261 38.7665 10.1416 37.8383 10.1416 36.8704V4.02454C10.1416 3.05662 10.5261 2.12835 11.2105 1.44392C11.8949 0.759504 12.8232 0.375 13.7911 0.375H64.8846Z" stroke="#141F3C" stroke-width="1.4466" stroke-linecap="round" stroke-linejoin="round"/>
<path d="M43.1306 7.66602L30.2872 20.6143C30.1616 20.7411 30.076 20.9027 30.0415 21.0785C30.007 21.2544 30.025 21.4366 30.0932 21.6021C30.1615 21.7677 30.2769 21.9091 30.4249 22.0084C30.5729 22.1078 30.7468 22.1607 30.9246 22.1604H35.9421V33.0311L48.7855 20.0828C48.911 19.9561 48.9964 19.7948 49.031 19.6192C49.0656 19.4436 49.0478 19.2615 48.9799 19.0961C48.9119 18.9307 48.7969 18.7892 48.6493 18.6897C48.5017 18.5901 48.3281 18.5369 48.1505 18.5368H43.1306V7.66602Z" stroke="#141F3C" stroke-width="1.46187" stroke-linecap="round" stroke-linejoin="round"/>
</svg>
