<svg width="32" height="32" viewBox="0 0 32 32" fill="none" xmlns="http://www.w3.org/2000/svg">
<path fill-rule="evenodd" clip-rule="evenodd" d="M16.9099 10.0161C17.6879 10.7941 17.6879 12.0555 16.9099 12.8335L9.52954 20.2139L16.9099 27.5942C17.6879 28.3722 17.6879 29.6336 16.9099 30.4116C16.1319 31.1896 14.8705 31.1896 14.0925 30.4116L5.30347 21.6226C4.52547 20.8446 4.52547 19.5832 5.30347 18.8052L14.0925 10.0161C14.8705 9.23812 16.1319 9.23812 16.9099 10.0161Z" fill="#5230E0"/>
<path fill-rule="evenodd" clip-rule="evenodd" d="M14.1284 1.5835C14.9064 0.805501 16.1678 0.805501 16.9458 1.5835C16.9458 1.5835 24.9569 9.59456 25.7349 10.3726C26.5129 11.1506 26.5129 12.4119 25.7349 13.1899L16.9458 21.979C16.1678 22.757 14.9064 22.757 14.1284 21.979C13.3504 21.201 13.3504 19.9396 14.1284 19.1616L21.5088 11.7813L14.1284 4.40088C13.3504 3.62288 13.3504 2.3615 14.1284 1.5835Z" fill="#75E1C7"/>
<circle cx="15.5371" cy="2.99219" r="1.99219" fill="#379981"/>
<circle cx="15.5371" cy="11.4297" r="1.99219" fill="#826BDE"/>
<circle cx="15.5371" cy="20.5703" r="1.99219" fill="#379981"/>
<circle cx="15.5371" cy="29.0078" r="1.99219" fill="#826BDE"/>
</svg>
