<svg width="210" height="96" viewBox="0 0 105 48" fill="none" xmlns="http://www.w3.org/2000/svg">
<path d="M46.5374 10.7771C45.6172 10.7771 44.8168 10.6069 44.1361 10.2666C43.4555 9.91368 42.9261 9.4284 42.5479 8.81076C42.1824 8.18052 41.9996 7.44944 41.9996 6.61753V4.15959C41.9996 3.32767 42.1824 2.60289 42.5479 1.98526C42.9261 1.35502 43.4555 0.869732 44.1361 0.529402C44.8168 0.176467 45.6172 0 46.5374 0C47.4701 0 48.2705 0.176467 48.9386 0.529402C49.6192 0.869732 50.1423 1.35502 50.5079 1.98526C50.886 2.60289 51.0751 3.32767 51.0751 4.15959V6.61753C51.0751 7.44944 50.886 8.18052 50.5079 8.81076C50.1423 9.4284 49.6192 9.91368 48.9386 10.2666C48.2705 10.6069 47.4701 10.7771 46.5374 10.7771ZM46.5374 8.31917C47.092 8.31917 47.5142 8.17422 47.8041 7.88431C48.094 7.58179 48.239 7.15953 48.239 6.61753V4.15959C48.239 3.60498 48.094 3.18271 47.8041 2.8928C47.5142 2.60289 47.092 2.45794 46.5374 2.45794C45.9953 2.45794 45.5731 2.60289 45.2706 2.8928C44.9807 3.18271 44.8357 3.60498 44.8357 4.15959V6.61753C44.8357 7.15953 44.9807 7.58179 45.2706 7.88431C45.5731 8.17422 45.9953 8.31917 46.5374 8.31917Z" fill="#6B7CA9"/>
<path d="M52.6937 13.9913V0.189072H55.4353V2.17433H56.097L55.4353 2.83608C55.4353 1.94114 55.6811 1.24788 56.1726 0.756288C56.6642 0.252096 57.3386 0 58.1957 0C59.2419 0 60.0801 0.371842 60.7104 1.11553C61.3406 1.8466 61.6557 2.82978 61.6557 4.06505V6.71206C61.6557 7.53137 61.5108 8.24985 61.2209 8.86748C60.9436 9.47251 60.5465 9.94519 60.0297 10.2855C59.5129 10.6132 58.9016 10.7771 58.1957 10.7771C57.3386 10.7771 56.6642 10.5313 56.1726 10.0397C55.6811 9.53554 55.4353 8.83597 55.4353 7.94103L56.097 8.60278H55.4353L55.5298 11.1553V13.9913H52.6937ZM57.1747 8.31917C57.7041 8.31917 58.1075 8.17422 58.3848 7.88431C58.6747 7.58179 58.8197 7.15953 58.8197 6.61753V4.15959C58.8197 3.60498 58.6747 3.18271 58.3848 2.8928C58.1075 2.60289 57.7041 2.45794 57.1747 2.45794C56.6579 2.45794 56.2546 2.6092 55.9647 2.91171C55.6748 3.20162 55.5298 3.61758 55.5298 4.15959V6.61753C55.5298 7.15953 55.6748 7.58179 55.9647 7.88431C56.2546 8.17422 56.6579 8.31917 57.1747 8.31917Z" fill="#6B7CA9"/>
<path d="M67.7176 10.7771C66.7974 10.7771 65.9907 10.6069 65.2974 10.2666C64.6168 9.91368 64.0874 9.4284 63.7092 8.81076C63.3437 8.18052 63.1609 7.44944 63.1609 6.61753V4.15959C63.1609 3.32767 63.3437 2.60289 63.7092 1.98526C64.0874 1.35502 64.6168 0.869732 65.2974 0.529402C65.9907 0.176467 66.7974 0 67.7176 0C68.6377 0 69.4318 0.176467 70.0999 0.529402C70.7805 0.869732 71.3036 1.35502 71.6692 1.98526C72.0473 2.60289 72.2364 3.32767 72.2364 4.15959V6.05031H65.8647V6.61753C65.8647 7.27298 66.0222 7.77086 66.3373 8.11119C66.6525 8.43892 67.1251 8.60278 67.7554 8.60278C68.1965 8.60278 68.5495 8.52715 68.8142 8.3759C69.0915 8.22464 69.2743 8.01666 69.3625 7.75196H72.1419C71.915 8.6595 71.3982 9.39058 70.5915 9.94519C69.7974 10.4998 68.8394 10.7771 67.7176 10.7771ZM69.5327 4.59445V4.12177C69.5327 3.47893 69.3814 2.98734 69.0789 2.64701C68.789 2.30668 68.3352 2.13651 67.7176 2.13651C67.0999 2.13651 66.6336 2.31298 66.3184 2.66592C66.0159 3.01885 65.8647 3.51674 65.8647 4.15959V4.4432L69.7217 4.40538L69.5327 4.59445Z" fill="#6B7CA9"/>
<path d="M74.0441 10.588V0.189072H76.7856V2.17433H77.6176L76.7856 2.83608C76.7856 1.95375 77.0377 1.26048 77.5419 0.756288C78.0461 0.252096 78.7268 0 79.5839 0C80.5923 0 81.399 0.352935 82.004 1.0588C82.6217 1.76467 82.9305 2.70373 82.9305 3.87598V10.588H80.0944V4.15959C80.0944 3.61758 79.9495 3.20162 79.6595 2.91171C79.3822 2.6092 78.9852 2.45794 78.4684 2.45794C77.9642 2.45794 77.5734 2.6092 77.2961 2.91171C77.0188 3.20162 76.8802 3.61758 76.8802 4.15959V10.588H74.0441Z" fill="#6B7CA9"/>
<path d="M46.1025 27.5387C45.2454 27.5387 44.4954 27.4064 43.8525 27.1417C43.2097 26.8644 42.7055 26.4862 42.3399 26.0073C41.987 25.5283 41.8105 24.9674 41.8105 24.3245H44.6466C44.6466 24.627 44.779 24.8728 45.0437 25.0619C45.321 25.2384 45.6739 25.3266 46.1025 25.3266H46.9344C47.4512 25.3266 47.8419 25.2321 48.1066 25.043C48.384 24.8539 48.5226 24.5892 48.5226 24.2489C48.5226 23.9338 48.4029 23.6943 48.1634 23.5304C47.9239 23.3539 47.552 23.2342 47.0478 23.1712L45.8378 23.0199C44.5395 22.8561 43.5941 22.5409 43.0017 22.0746C42.4093 21.6082 42.1131 20.896 42.1131 19.938C42.1131 18.9297 42.4597 18.1482 43.153 17.5935C43.8462 17.0389 44.8609 16.7616 46.197 16.7616H46.9155C48.1886 16.7616 49.2033 17.0389 49.9596 17.5935C50.7158 18.1482 51.094 18.8918 51.094 19.8246H48.2579C48.2579 19.5725 48.1319 19.3708 47.8798 19.2196C47.6403 19.0557 47.3188 18.9738 46.9155 18.9738H46.197C45.7306 18.9738 45.3903 19.0557 45.176 19.2196C44.9617 19.3708 44.8546 19.604 44.8546 19.9191C44.8546 20.209 44.9491 20.4296 45.1382 20.5809C45.3399 20.7321 45.655 20.8393 46.0836 20.9023L47.3882 21.0725C48.6991 21.2363 49.6696 21.5641 50.2999 22.0556C50.9427 22.5472 51.2642 23.2783 51.2642 24.2489C51.2642 25.3077 50.8986 26.1207 50.1675 26.6879C49.4365 27.2551 48.3587 27.5387 46.9344 27.5387H46.1025Z" fill="#6B7CA9"/>
<path d="M57.3071 27.5387C56.3869 27.5387 55.5865 27.3686 54.9059 27.0282C54.2252 26.6753 53.6958 26.19 53.3177 25.5724C52.9521 24.9422 52.7693 24.2111 52.7693 23.3792V20.9212C52.7693 20.0893 52.9521 19.3645 53.3177 18.7469C53.6958 18.1166 54.2252 17.6314 54.9059 17.291C55.5865 16.9381 56.3869 16.7616 57.3071 16.7616C58.2398 16.7616 59.0402 16.9381 59.7083 17.291C60.389 17.6314 60.9121 18.1166 61.2776 18.7469C61.6557 19.3645 61.8448 20.0893 61.8448 20.9212V23.3792C61.8448 24.2111 61.6557 24.9422 61.2776 25.5724C60.9121 26.19 60.389 26.6753 59.7083 27.0282C59.0402 27.3686 58.2398 27.5387 57.3071 27.5387ZM57.3071 25.0808C57.8617 25.0808 58.2839 24.9358 58.5739 24.6459C58.8638 24.3434 59.0087 23.9212 59.0087 23.3792V20.9212C59.0087 20.3666 58.8638 19.9443 58.5739 19.6544C58.2839 19.3645 57.8617 19.2196 57.3071 19.2196C56.7651 19.2196 56.3428 19.3645 56.0403 19.6544C55.7504 19.9443 55.6054 20.3666 55.6054 20.9212V23.3792C55.6054 23.9212 55.7504 24.3434 56.0403 24.6459C56.3428 24.9358 56.7651 25.0808 57.3071 25.0808Z" fill="#6B7CA9"/>
<path d="M68.0768 27.5387C66.6777 27.5387 65.5811 27.1606 64.7869 26.4043C64.0054 25.648 63.6147 24.6144 63.6147 23.3035V16.9507H66.4508V23.2846C66.4508 23.8644 66.5894 24.3119 66.8667 24.627C67.144 24.9295 67.5474 25.0808 68.0768 25.0808C68.5936 25.0808 68.9907 24.9295 69.268 24.627C69.5579 24.3119 69.7028 23.8644 69.7028 23.2846V16.9507H72.5389V23.3035C72.5389 24.627 72.1419 25.6669 71.3477 26.4232C70.5536 27.1669 69.4633 27.5387 68.0768 27.5387Z" fill="#6B7CA9"/>
<path d="M74.3466 27.3497V16.9507H76.9936V18.936H77.7121L76.8991 20.146C76.8991 19.0242 77.1575 18.1797 77.6743 17.6125C78.1911 17.0452 78.9474 16.7616 79.9431 16.7616C81.0902 16.7616 81.9788 17.1083 82.6091 17.8015C83.2519 18.4948 83.5733 19.4717 83.5733 20.7321V21.583H80.5482V20.9212C80.5482 20.354 80.3906 19.9128 80.0755 19.5977C79.773 19.2826 79.3633 19.125 78.8465 19.125C78.3045 19.125 77.8886 19.2826 77.5987 19.5977C77.3214 19.9128 77.1827 20.354 77.1827 20.9212V27.3497H74.3466Z" fill="#6B7CA9"/>
<path d="M89.4839 27.5387C88.5638 27.5387 87.757 27.3686 87.0638 27.0282C86.3705 26.6753 85.8348 26.19 85.4567 25.5724C85.0785 24.9422 84.8895 24.2111 84.8895 23.3792V20.9212C84.8895 20.0767 85.0785 19.3456 85.4567 18.728C85.8348 18.1103 86.3705 17.6314 87.0638 17.291C87.757 16.9381 88.5638 16.7616 89.4839 16.7616C90.8578 16.7616 91.9544 17.1083 92.7738 17.8015C93.5931 18.4948 94.0279 19.4401 94.0784 20.6376H91.2423C91.2045 20.1964 91.028 19.8498 90.7129 19.5977C90.4104 19.3456 90.0007 19.2196 89.4839 19.2196C88.9167 19.2196 88.4818 19.3645 88.1793 19.6544C87.8768 19.9443 87.7255 20.3666 87.7255 20.9212V23.3792C87.7255 23.9212 87.8768 24.3434 88.1793 24.6459C88.4818 24.9358 88.9167 25.0808 89.4839 25.0808C90.0007 25.0808 90.4104 24.9611 90.7129 24.7216C91.028 24.4695 91.2045 24.1165 91.2423 23.6628H94.0784C94.0279 24.8602 93.5931 25.8056 92.7738 26.4988C91.9544 27.1921 90.8578 27.5387 89.4839 27.5387Z" fill="#6B7CA9"/>
<path d="M100.405 27.5387C99.4847 27.5387 98.678 27.3686 97.9848 27.0282C97.3041 26.6753 96.7747 26.19 96.3966 25.5724C96.031 24.9422 95.8482 24.2111 95.8482 23.3792V20.9212C95.8482 20.0893 96.031 19.3645 96.3966 18.7469C96.7747 18.1166 97.3041 17.6314 97.9848 17.291C98.678 16.9381 99.4847 16.7616 100.405 16.7616C101.325 16.7616 102.119 16.9381 102.787 17.291C103.468 17.6314 103.991 18.1166 104.356 18.7469C104.735 19.3645 104.924 20.0893 104.924 20.9212V22.8119H98.552V23.3792C98.552 24.0346 98.7095 24.5325 99.0247 24.8728C99.3398 25.2005 99.8125 25.3644 100.443 25.3644C100.884 25.3644 101.237 25.2888 101.502 25.1375C101.779 24.9863 101.962 24.7783 102.05 24.5136H104.829C104.602 25.4211 104.085 26.1522 103.279 26.7068C102.485 27.2614 101.527 27.5387 100.405 27.5387ZM102.22 21.3561V20.8834C102.22 20.2406 102.069 19.749 101.766 19.4086C101.476 19.0683 101.023 18.8981 100.405 18.8981C99.7873 18.8981 99.3209 19.0746 99.0058 19.4275C98.7032 19.7805 98.552 20.2784 98.552 20.9212V21.2048L102.409 21.167L102.22 21.3561Z" fill="#6B7CA9"/>
<path d="M42.3778 47.5146V44.8676H45.4029C45.9197 44.8676 46.3168 44.7226 46.5941 44.4327C46.8714 44.1554 47.01 43.7647 47.01 43.2605V36.3593H42.945V33.7123H49.8461V43.355C49.8461 44.6407 49.468 45.6554 48.7117 46.3991C47.9554 47.1428 46.9218 47.5146 45.6109 47.5146H42.3778ZM48.3335 32.0674C47.8167 32.0674 47.4008 31.9351 47.0857 31.6703C46.7831 31.4056 46.6319 31.0464 46.6319 30.5926C46.6319 30.1389 46.7831 29.7796 47.0857 29.5149C47.4008 29.2502 47.8167 29.1179 48.3335 29.1179C48.8503 29.1179 49.26 29.2502 49.5625 29.5149C49.8776 29.7796 50.0352 30.1389 50.0352 30.5926C50.0352 31.0464 49.8776 31.4056 49.5625 31.6703C49.26 31.9351 48.8503 32.0674 48.3335 32.0674Z" fill="#6B7CA9"/>
<path d="M55.7756 44.3004C54.7294 44.3004 53.8975 44.0168 53.2798 43.4495C52.6748 42.8823 52.3723 42.1134 52.3723 41.1429C52.3723 40.0967 52.7315 39.2963 53.45 38.7416C54.1811 38.1744 55.2273 37.8908 56.5886 37.8908H58.744V37.1156C58.744 36.7123 58.5991 36.3909 58.3092 36.1514C58.0319 35.9119 57.6537 35.7921 57.1747 35.7921C56.7336 35.7921 56.368 35.893 56.0781 36.0946C55.7882 36.2963 55.6117 36.5736 55.5487 36.9266H52.8072C52.9206 35.8804 53.3744 35.0547 54.1685 34.4497C54.9752 33.8321 56.0088 33.5233 57.2693 33.5233C58.5928 33.5233 59.639 33.851 60.4079 34.5064C61.1894 35.1493 61.5801 36.019 61.5801 37.1156V44.1113H58.8386V42.4096H58.3848L58.8575 41.7479C58.8575 42.5294 58.5739 43.1533 58.0066 43.6197C57.452 44.0735 56.7083 44.3004 55.7756 44.3004ZM56.8344 42.2206C57.389 42.2206 57.8428 42.0756 58.1957 41.7857C58.5613 41.4832 58.744 41.0924 58.744 40.6135V39.4979H56.6453C56.2168 39.4979 55.8701 39.624 55.6054 39.8761C55.3407 40.1156 55.2084 40.437 55.2084 40.8404C55.2084 41.2689 55.3533 41.6092 55.6432 41.8613C55.9332 42.1008 56.3302 42.2206 56.8344 42.2206Z" fill="#6B7CA9"/>
<path d="M62.8206 44.1113V33.7123H65.0516V35.2249H65.5054L65.1462 35.4896C65.1462 34.8972 65.3164 34.4245 65.6567 34.0716C65.997 33.706 66.4193 33.5233 66.9235 33.5233C67.4655 33.5233 67.8877 33.7564 68.1902 34.2228C68.4928 34.6892 68.644 35.3068 68.644 36.0757L68.3037 35.2249H68.8331L68.6629 35.4896C68.6629 34.8972 68.8268 34.4245 69.1545 34.0716C69.4822 33.706 69.9234 33.5233 70.478 33.5233C71.1083 33.5233 71.6188 33.7627 72.0095 34.2417C72.4003 34.7081 72.5956 35.351 72.5956 36.1703V44.1113H70.1566V36.3593C70.1566 36.0694 70.0936 35.8488 69.9675 35.6976C69.8415 35.5337 69.6587 35.4518 69.4192 35.4518C69.1797 35.4518 68.997 35.5337 68.8709 35.6976C68.7449 35.8488 68.6818 36.0694 68.6818 36.3593V44.1113H66.7344V36.3593C66.7344 36.0694 66.6714 35.8488 66.5453 35.6976C66.4193 35.5337 66.2365 35.4518 65.997 35.4518C65.7575 35.4518 65.5747 35.5337 65.4487 35.6976C65.3227 35.8488 65.2596 36.0694 65.2596 36.3593V44.1113H62.8206Z" fill="#6B7CA9"/>
<path fill-rule="evenodd" clip-rule="evenodd" d="M18.9785 14.5122C20.1849 15.7185 20.1849 17.6744 18.9785 18.8807L7.53474 30.3245L18.9785 41.7684C20.1849 42.9747 20.1849 44.9306 18.9785 46.1369C17.7722 47.3433 15.8163 47.3433 14.61 46.1369L0.981906 32.5088C-0.224437 31.3025 -0.224437 29.3466 0.981906 28.1403L14.61 14.5122C15.8163 13.3058 17.7722 13.3058 18.9785 14.5122Z" fill="#6B7CA9"/>
<path fill-rule="evenodd" clip-rule="evenodd" d="M14.6655 1.43698C15.8718 0.230641 17.8277 0.230641 19.0341 1.43698C19.0341 1.43698 31.4558 13.8587 32.6621 15.0651C33.8685 16.2714 33.8685 18.2273 32.6621 19.4336L19.0341 33.0617C17.8277 34.2681 15.8718 34.2681 14.6655 33.0617C13.4592 31.8554 13.4592 29.8995 14.6655 28.6932L26.1093 17.2494L14.6655 5.80554C13.4592 4.5992 13.4592 2.64333 14.6655 1.43698Z" fill="#6B7CA9"/>
<circle cx="16.8498" cy="3.62126" r="3.08903" fill="#6B7CA9"/>
<circle cx="16.8498" cy="16.7043" r="3.08903" fill="#6B7CA9"/>
<circle cx="16.8498" cy="30.8781" r="3.08903" fill="#6B7CA9"/>
<circle cx="16.8498" cy="43.9601" r="3.08903" fill="#6B7CA9"/>
</svg>
