<svg width="88" height="88" viewBox="0 0 88 88" fill="none" xmlns="http://www.w3.org/2000/svg">
<path d="M50.3181 60.6536L80.3894 58.3619C81.4819 58.2781 82.5772 58.4856 83.5633 58.9634C84.5495 59.4411 85.3912 60.1719 86.0027 61.0812C86.6141 61.9905 86.9734 63.0457 87.0439 64.1392C87.1143 65.2327 86.8934 66.3253 86.4036 67.3056V67.3056C85.7021 68.703 84.4996 69.7847 83.0358 70.3346L41.4502 85.9262C38.8888 86.8888 36.0742 86.9408 33.479 86.0737L1.61816 75.4561" stroke="#141F3C" stroke-width="1.61106" stroke-linecap="round" stroke-linejoin="round"/>
<path d="M22.5425 63.5003H45.6111C46.7271 63.5002 47.8148 63.1491 48.7203 62.4968C49.6258 61.8445 50.3033 60.924 50.6569 59.8655V59.8655C50.885 59.1794 50.9709 58.454 50.9093 57.7335C50.8477 57.0131 50.6399 56.3128 50.2986 55.6754C49.9573 55.0379 49.4897 54.4767 48.9243 54.0261C48.3589 53.5754 47.7075 53.2447 47.0101 53.0541L23.3436 46.6015C20.846 45.9181 18.2303 45.7821 15.6753 46.2029L1.61816 48.5464" stroke="#141F3C" stroke-width="1.61106" stroke-linecap="round" stroke-linejoin="round"/>
<path d="M31.1746 7.31055L16.5635 18.2709L31.1746 29.2313" stroke="#141F3C" stroke-width="1.61106" stroke-linecap="round" stroke-linejoin="round"/>
<path d="M67.7109 7.31055L82.3261 18.2709L67.7109 29.2313" stroke="#141F3C" stroke-width="1.61106" stroke-linecap="round" stroke-linejoin="round"/>
<path d="M53.0956 0L45.79 36.5359" stroke="#141F3C" stroke-width="1.61106" stroke-linecap="round" stroke-linejoin="round"/>
</svg>
