<svg width="90" height="79" viewBox="0 0 90 79" fill="none" xmlns="http://www.w3.org/2000/svg">
<path d="M15.1081 24.3979C21.7117 24.3979 27.0649 19.0447 27.0649 12.4411C27.0649 5.8376 21.7117 0.484375 15.1081 0.484375C8.5046 0.484375 3.15137 5.8376 3.15137 12.4411C3.15137 19.0447 8.5046 24.3979 15.1081 24.3979Z" stroke="#141F3C" stroke-width="1.61106" stroke-linecap="round" stroke-linejoin="round"/>
<path d="M20.393 31.3372C18.1304 30.4849 15.695 30.1937 13.2952 30.4887C10.8955 30.7836 8.60309 31.6559 6.61427 33.0307C4.62546 34.4056 2.99956 36.2421 1.87584 38.3828C0.752125 40.5236 0.164091 42.9048 0.162109 45.3226V54.2902H6.14049L9.12969 78.2037H21.0904L24.0796 54.2902H30.058" stroke="#141F3C" stroke-width="1.61106" stroke-linecap="round" stroke-linejoin="round"/>
<path d="M74.8913 24.3979C81.4949 24.3979 86.8481 19.0447 86.8481 12.4411C86.8481 5.8376 81.4949 0.484375 74.8913 0.484375C68.2878 0.484375 62.9346 5.8376 62.9346 12.4411C62.9346 19.0447 68.2878 24.3979 74.8913 24.3979Z" stroke="#141F3C" stroke-width="1.61106" stroke-linecap="round" stroke-linejoin="round"/>
<path d="M72.9781 30.4955C73.6126 30.4153 74.2516 30.3754 74.8912 30.376C78.8551 30.376 82.6567 31.9506 85.4596 34.7536C88.2625 37.5565 89.8372 41.358 89.8372 45.3219V54.2895H83.8588L80.8696 78.2031H68.9168L65.9276 54.2895H59.9492" stroke="#141F3C" stroke-width="1.61106" stroke-linecap="round" stroke-linejoin="round"/>
<path d="M53.0909 15.4307L31.7281 36.7934C31.5191 37.0027 31.3769 37.2692 31.3195 37.5594C31.262 37.8495 31.292 38.1501 31.4055 38.4232C31.519 38.6963 31.711 38.9296 31.9571 39.0936C32.2033 39.2575 32.4925 39.3447 32.7883 39.3442H41.1341V57.2794L62.4969 35.9166C62.7056 35.7076 62.8478 35.4414 62.9053 35.1516C62.9629 34.8619 62.9333 34.5616 62.8203 34.2886C62.7073 34.0157 62.5159 33.7824 62.2704 33.6181C62.0248 33.4539 61.7361 33.3661 61.4407 33.3658H53.0909V15.4307Z" stroke="#141F3C" stroke-width="1.61106" stroke-linecap="round" stroke-linejoin="round"/>
</svg>
